# xmcd
#
# Track frame offsets:
#  150
#  20528
#  29382
#  44052
#  61780
#  81411
#  100123
#  111943
#  130476
#  149235
#  163508
#  178349
#  194284
#  215262
#
# Disc length: 3253 seconds
#
# Revision: 0
# Processed by: cddbd v1.5.2PL0 Copyright (c) Steve Scherf et al.
# Submitted via: Collectorz.com Music Collector 6.9
#
DISCID=d30cb30e
DTITLE=The Nitty Gritty Dirt Band - Will The Circle Be Unbroken  Volume III  Disc 2
DYEAR=2002
DGENRE=Country
TTITLE0=Taj Mahal and Vassar Clements - Fishin' Blues  
TTITLE1=Jimmy Martin - Save It, Save It 
TTITLE2=Willie Nelson - Roll In My Sweet Baby's Arms
TTITLE3=Dwight Yokam - Wheels
TTITLE4=Matraca Berg and Emmy Lou Harris - Oh  Cumberland
TTITLE5=Doc Watson and Richard Watson - I Am A Pilgrim
TTITLE6=Earl Scruggs - Sallie Anne
TTITLE7=Allison Kraus - Catfish John
TTITLE8=Roll The Stone Away
TTITLE9=Vince Gill - All Prayed Up
TTITLE10=Jerry Douglas, Glen Duncan, Ronnie McCoury, Tony Rice - Return to Dismal Swamp II
TTITLE11=Ronnie Dillard and Ricky Skaggs - There Is A Time
TTITLE12=Taj Mahal, Allison Krause and Doc Watson - Will The Circle Be Unbroken (Glory Glory)
TTITLE13=Randy Scruggs - Farther Along
EXTD=
EXTT0=
EXTT1=
EXTT2=
EXTT3=
EXTT4=
EXTT5=
EXTT6=
EXTT7=
EXTT8=
EXTT9=
EXTT10=
EXTT11=
EXTT12=
EXTT13=
PLAYORDER=
